<svg width="480" height="489" viewBox="0 0 480 489" fill="none" xmlns="http://www.w3.org/2000/svg">
<path d="M59.538 337C57.8313 337 56.594 336.616 55.826 335.848C55.1433 335.08 54.802 333.928 54.802 332.392V254.696C54.802 253.075 55.1433 251.88 55.826 251.112C56.594 250.344 57.8313 249.96 59.538 249.96H112.786C114.493 249.96 115.645 250.301 116.242 250.984C116.925 251.667 117.266 252.819 117.266 254.44V257.896C117.266 259.517 116.925 260.712 116.242 261.48C115.645 262.163 114.493 262.504 112.786 262.504H71.186V287.208H101.394C103.101 287.208 104.295 287.549 104.978 288.232C105.661 288.915 106.002 290.067 106.002 291.688V295.144C106.002 296.765 105.661 297.96 104.978 298.728C104.295 299.411 103.101 299.752 101.394 299.752H71.186V332.392C71.186 333.928 70.802 335.08 70.034 335.848C69.3513 336.616 68.114 337 66.322 337H59.538ZM129.202 264.936C127.154 264.936 125.575 264.339 124.466 263.144C123.357 261.949 122.802 260.499 122.802 258.792V256.104C122.802 254.397 123.357 252.947 124.466 251.752C125.575 250.557 127.154 249.96 129.202 249.96H134.706C136.754 249.96 138.333 250.557 139.442 251.752C140.637 252.947 141.234 254.397 141.234 256.104V258.792C141.234 260.499 140.637 261.949 139.442 263.144C138.333 264.339 136.754 264.936 134.706 264.936H129.202ZM128.69 337C126.983 337 125.746 336.616 124.978 335.848C124.21 335.08 123.826 333.928 123.826 332.392V280.296C123.826 278.675 124.21 277.48 124.978 276.712C125.746 275.944 126.983 275.56 128.69 275.56H135.346C137.053 275.56 138.29 275.944 139.058 276.712C139.826 277.48 140.21 278.675 140.21 280.296V332.392C140.21 333.928 139.826 335.08 139.058 335.848C138.375 336.616 137.138 337 135.346 337H128.69ZM161.038 337C159.331 337 158.094 336.616 157.326 335.848C156.643 335.08 156.302 333.928 156.302 332.392V254.696C156.302 253.075 156.643 251.88 157.326 251.112C158.094 250.344 159.331 249.96 161.038 249.96H167.822C169.529 249.96 170.766 250.344 171.534 251.112C172.302 251.88 172.686 253.075 172.686 254.696V332.392C172.686 333.928 172.302 335.08 171.534 335.848C170.851 336.616 169.614 337 167.822 337H161.038ZM192.666 337C190.959 337 189.722 336.616 188.954 335.848C188.186 335.08 187.802 333.928 187.802 332.392V279.016C187.802 277.736 188.015 276.84 188.442 276.328C188.869 275.816 189.765 275.56 191.13 275.56H197.914C198.853 275.56 199.535 275.773 199.962 276.2C200.389 276.541 200.645 277.181 200.73 278.12L201.114 283.496C203.589 280.339 206.405 277.907 209.562 276.2C212.805 274.493 216.645 273.64 221.082 273.64C224.837 273.64 228.079 274.493 230.81 276.2C233.626 277.821 235.674 280.253 236.954 283.496C241.647 276.925 248.431 273.64 257.306 273.64C263.365 273.64 268.143 275.475 271.642 279.144C275.226 282.813 277.018 288.275 277.018 295.528V332.392C277.018 333.928 276.634 335.08 275.866 335.848C275.183 336.616 273.946 337 272.154 337H266.522C264.815 337 263.578 336.616 262.81 335.848C262.042 335.08 261.658 333.928 261.658 332.392V296.424C261.658 292.499 260.805 289.683 259.098 287.976C257.477 286.269 255.002 285.416 251.674 285.416C248.175 285.416 245.317 286.568 243.098 288.872C240.965 291.176 239.898 294.291 239.898 298.216V332.392C239.898 333.928 239.514 335.08 238.746 335.848C237.978 336.616 236.741 337 235.034 337H229.786C228.079 337 226.842 336.616 226.074 335.848C225.306 335.08 224.922 333.928 224.922 332.392V295.784C224.922 292.2 224.154 289.597 222.618 287.976C221.167 286.269 218.821 285.416 215.578 285.416C211.909 285.416 208.922 286.653 206.618 289.128C204.314 291.517 203.162 294.675 203.162 298.6V332.392C203.162 333.928 202.778 335.08 202.01 335.848C201.327 336.616 200.09 337 198.298 337H192.666ZM324.579 338.92C317.923 338.92 311.907 337.811 306.531 335.592C301.155 333.288 296.846 329.789 293.603 325.096C290.446 320.317 288.867 314.387 288.867 307.304C288.867 296.296 291.811 287.933 297.699 282.216C303.587 276.499 311.95 273.64 322.787 273.64C333.539 273.64 341.646 276.413 347.107 281.96C352.654 287.507 355.427 295.528 355.427 306.024C355.427 309.011 354.062 310.504 351.331 310.504H304.355C304.355 316.136 306.318 320.488 310.243 323.56C314.168 326.547 319.63 328.04 326.627 328.04C333.368 328.04 339.427 326.504 344.803 323.432C345.4 323.091 345.87 322.92 346.211 322.92C346.808 322.92 347.278 323.304 347.619 324.072L350.691 329.576C350.947 330.088 351.075 330.557 351.075 330.984C351.075 331.581 350.691 332.136 349.923 332.648C346.424 334.781 342.627 336.36 338.531 337.384C334.52 338.408 329.87 338.92 324.579 338.92ZM340.579 301.032C340.579 295.741 339.086 291.603 336.099 288.616C333.198 285.629 328.803 284.136 322.915 284.136C316.942 284.136 312.334 285.672 309.091 288.744C305.934 291.816 304.355 295.912 304.355 301.032H340.579ZM401.463 338.92C390.114 338.92 381.239 336.147 374.839 330.6C368.524 324.968 365.367 316.947 365.367 306.536C365.367 300.051 366.818 294.333 369.719 289.384C372.62 284.435 376.759 280.595 382.135 277.864C387.596 275.048 393.954 273.64 401.207 273.64C406.583 273.64 411.148 274.152 414.903 275.176C418.658 276.2 422.156 277.864 425.399 280.168C426.167 280.68 426.551 281.235 426.551 281.832C426.551 282.344 426.338 282.941 425.911 283.624L422.455 289.64C421.943 290.493 421.474 290.92 421.047 290.92C420.62 290.92 420.023 290.664 419.255 290.152C416.61 288.531 413.964 287.336 411.319 286.568C408.759 285.715 405.687 285.288 402.103 285.288C395.703 285.288 390.668 287.208 386.999 291.048C383.33 294.803 381.495 299.965 381.495 306.536C381.495 313.448 383.33 318.653 386.999 322.152C390.668 325.565 396.044 327.272 403.127 327.272C406.711 327.272 409.826 326.845 412.471 325.992C415.116 325.139 417.676 323.901 420.151 322.28C420.834 321.853 421.388 321.64 421.815 321.64C422.327 321.64 422.839 322.067 423.351 322.92L427.063 329.192C427.404 329.619 427.575 330.088 427.575 330.6C427.575 331.197 427.148 331.795 426.295 332.392C422.882 334.611 419.212 336.232 415.287 337.256C411.362 338.365 406.754 338.92 401.463 338.92Z" fill="#EFEFEF"/>
<rect x="176" y="120" width="128" height="36" rx="18" fill="#EFEFEF"/>
<rect x="148" y="10.5984" width="20" height="150" rx="10" transform="rotate(-32 148 10.5984)" fill="#EFEFEF"/>
<rect width="20" height="150" rx="10" transform="matrix(-0.848048 -0.529919 -0.529919 0.848048 332.449 10.5984)" fill="#EFEFEF"/>
<rect x="121" y="250" width="22" height="16" rx="8" fill="#FA4848"/>
<path d="M392 141.5C405.877 141.5 416.736 141.494 425.45 142.206C434.252 142.925 441.523 144.414 448.104 147.768C458.924 153.28 467.72 162.076 473.232 172.896C476.586 179.477 478.075 186.748 478.794 195.55C479.506 204.264 479.5 215.123 479.5 229V369C479.5 382.877 479.506 393.736 478.794 402.45C478.075 411.252 476.586 418.523 473.232 425.104C467.72 435.924 458.924 444.72 448.104 450.232C441.523 453.586 434.252 455.075 425.45 455.794C416.736 456.506 405.877 456.5 392 456.5H299V441.5H392C406.125 441.5 416.268 441.494 424.229 440.844C432.103 440.2 437.181 438.964 441.295 436.868C449.292 432.794 455.794 426.292 459.868 418.295C461.964 414.181 463.2 409.103 463.844 401.229C464.494 393.268 464.5 383.125 464.5 369V229C464.5 214.875 464.494 204.732 463.844 196.771C463.2 188.897 461.964 183.819 459.868 179.705C455.794 171.708 449.292 165.206 441.295 161.132C437.181 159.036 432.103 157.8 424.229 157.156C416.268 156.506 406.125 156.5 392 156.5H88C73.8749 156.5 63.7319 156.506 55.7705 157.156C47.8969 157.8 42.8193 159.036 38.7051 161.132C30.7083 165.206 24.2064 171.708 20.1318 179.705C18.0355 183.819 16.7996 188.897 16.1563 196.771C15.5058 204.732 15.5 214.875 15.5 229V369C15.5 383.125 15.5058 393.268 16.1563 401.229C16.7996 409.103 18.0355 414.181 20.1318 418.295C24.2064 426.292 30.7083 432.794 38.7051 436.868C42.8193 438.964 47.8969 440.2 55.7705 440.844C63.7319 441.494 73.8749 441.5 88 441.5H277V456.5H88C74.1227 456.5 63.2636 456.506 54.5498 455.794C45.7484 455.075 38.4768 453.586 31.8955 450.232C21.0764 444.72 12.2803 435.924 6.76758 425.104C3.41424 418.523 1.92516 411.252 1.20606 402.45C0.494143 393.736 0.500002 382.877 0.500002 369V229C0.500002 215.123 0.494143 204.264 1.20606 195.55C1.92516 186.748 3.41424 179.477 6.76758 172.896C12.2803 162.076 21.0764 153.28 31.8955 147.768C38.4768 144.414 45.7484 142.925 54.5498 142.206C63.2636 141.494 74.1227 141.5 88 141.5H392Z" fill="#EFEFEF"/>
<path d="M230.402 439.334C235.832 442.512 238.547 444.101 239.461 446.168C240.259 447.972 240.259 450.028 239.461 451.832C238.547 453.899 235.832 455.488 230.402 458.666L204.587 473.775C199.06 477.01 196.296 478.627 194.027 478.398C192.047 478.198 190.246 477.166 189.074 475.558C187.729 473.715 187.729 470.513 187.729 464.109V433.891C187.729 427.487 187.729 424.285 189.074 422.442C190.246 420.834 192.047 419.802 194.027 419.602C196.296 419.373 199.06 420.99 204.587 424.225L230.402 439.334Z" fill="url(#paint0_linear_6_48)"/>
<path d="M267.484 439.334C272.914 442.512 275.629 444.101 276.543 446.168C277.341 447.972 277.341 450.028 276.543 451.832C275.629 453.899 272.914 455.488 267.484 458.666L241.669 473.775C236.142 477.01 233.378 478.627 231.109 478.398C229.129 478.198 227.328 477.166 226.156 475.558C224.811 473.715 224.811 470.513 224.811 464.109V433.891C224.811 427.487 224.811 424.285 226.156 422.442C227.328 420.834 229.129 419.802 231.109 419.602C233.378 419.373 236.142 420.99 241.669 424.225L267.484 439.334Z" fill="url(#paint1_linear_6_48)"/>
<rect x="262.5" y="418.066" width="14.8435" height="60.9437" rx="4" fill="url(#paint2_linear_6_48)"/>
<defs>
<linearGradient id="paint0_linear_6_48" x1="168" y1="449" x2="246.918" y2="449" gradientUnits="userSpaceOnUse">
<stop offset="0.1" stop-color="#F3C035"/>
<stop offset="0.25" stop-color="#FA4848"/>
<stop offset="0.4" stop-color="#B0D82E"/>
<stop offset="0.596154" stop-color="#53C3DD"/>
<stop offset="0.75" stop-color="#2A8CE7"/>
<stop offset="0.903846" stop-color="#621BF0"/>
</linearGradient>
<linearGradient id="paint1_linear_6_48" x1="205.082" y1="449" x2="284" y2="449" gradientUnits="userSpaceOnUse">
<stop offset="0.0961539" stop-color="#621BF0"/>
<stop offset="0.25" stop-color="#3398E5"/>
<stop offset="0.403846" stop-color="#53C3DD"/>
<stop offset="0.6" stop-color="#B0D82E"/>
<stop offset="0.75" stop-color="#FA4848"/>
<stop offset="0.9" stop-color="#F3C035"/>
</linearGradient>
<linearGradient id="paint2_linear_6_48" x1="277.344" y1="448.538" x2="262.5" y2="448.538" gradientUnits="userSpaceOnUse">
<stop stop-color="#2A8CE7"/>
<stop offset="0.149038" stop-color="#53C3DD"/>
<stop offset="0.322115" stop-color="#B0D82E"/>
<stop offset="0.793269" stop-color="#FA4848"/>
<stop offset="1" stop-color="#ED6044"/>
</linearGradient>
</defs>
</svg>
